<?xml version="1.0" encoding="UTF-8" standalone="no"?>
<!DOCTYPE svg PUBLIC "-//W3C//DTD SVG 1.1//EN" "http://www.w3.org/Graphics/SVG/1.1/DTD/svg11.dtd">
<svg version="1.1" xmlns="http://www.w3.org/2000/svg" xmlns:xlink="http://www.w3.org/1999/xlink" preserveAspectRatio="xMidYMid meet" viewBox="0 0 640 640" width="300" height="300"><defs><path d="M320 0C143.27 0 0 143.26 0 320.01C0 496.73 143.27 640 320 640C496.73 640 640 496.73 640 320.01C640 143.26 496.73 0 320 0Z" id="cdcpAm7qz"></path><path d="M320 365.9C284.99 365.9 256.6 394.28 256.6 429.29C256.6 464.31 284.99 492.69 320 492.69C355.01 492.69 383.4 464.31 383.4 429.29C383.4 394.28 355.01 365.9 320 365.9Z" id="cgqUNWRwm"></path><path d="M320 326.34C357.01 326.34 391.8 342.89 417.98 372.95C417.98 372.95 417.98 372.96 417.98 372.96C420.04 370.59 436.52 351.67 438.58 349.3C438.58 349.29 438.58 349.29 438.58 349.29C406.9 312.92 364.79 292.88 320 292.88C275.21 292.88 233.1 312.92 201.43 349.29C201.42 349.29 201.42 349.3 201.42 349.3C203.48 351.67 219.96 370.6 222.02 372.96C222.02 372.96 222.02 372.95 222.03 372.95C248.2 342.89 283 326.34 320 326.34Z" id="ahbvyPTGt"></path><path d="M320 253.23C373.36 253.23 423.54 277.1 461.27 320.43C461.27 320.44 461.27 320.44 461.28 320.44C463.34 318.08 479.82 299.15 481.88 296.78C481.88 296.78 481.87 296.78 481.87 296.77C438.63 247.12 381.15 219.77 320 219.77C258.86 219.77 201.37 247.12 158.13 296.77C158.13 296.78 158.13 296.78 158.12 296.78C160.18 299.15 176.66 318.08 178.72 320.44C178.73 320.44 178.73 320.44 178.73 320.43C216.47 277.1 266.64 253.23 320 253.23Z" id="cMK5TYwbS"></path><path d="M320 180.78C389.57 180.78 454.97 211.89 504.16 268.38C504.16 268.38 504.17 268.39 504.17 268.39C506.23 266.02 522.71 247.1 524.77 244.73C524.77 244.73 524.77 244.72 524.77 244.72C470.07 181.91 397.35 147.32 320 147.32C242.65 147.32 169.93 181.91 115.24 244.72C115.24 244.72 115.23 244.73 115.23 244.73C117.29 247.1 133.77 266.02 135.83 268.39C135.83 268.39 135.84 268.38 135.84 268.38C185.03 211.89 250.43 180.78 320 180.78Z" id="c66hkXOM0"></path><path d="M320.01 485.48C320.01 485.48 320.01 485.48 320.01 485.48C320.01 485.49 320.01 485.49 320.01 485.49C320.01 485.49 320.01 485.49 320.01 485.49C320 485.49 320 485.49 320 485.49C320 485.49 320 485.49 320 485.49C320 485.49 320 485.48 320 485.48C320 485.48 320 485.48 320 485.48C320 485.48 320.01 485.48 320.01 485.48Z" id="djqfPqSCM"></path></defs><g><g><g><use xlink:href="#cdcpAm7qz" opacity="1" fill="#ee6c4d" fill-opacity="1"></use><g><use xlink:href="#cdcpAm7qz" opacity="1" fill-opacity="0" stroke="#000000" stroke-width="1" stroke-opacity="0"></use></g></g><g><use xlink:href="#cgqUNWRwm" opacity="1" fill="#ffffff" fill-opacity="1"></use><g><use xlink:href="#cgqUNWRwm" opacity="1" fill-opacity="0" stroke="#000000" stroke-width="1" stroke-opacity="0"></use></g></g><g><use xlink:href="#ahbvyPTGt" opacity="1" fill="#ffffff" fill-opacity="1"></use><g><use xlink:href="#ahbvyPTGt" opacity="1" fill-opacity="0" stroke="#000000" stroke-width="1" stroke-opacity="0"></use></g></g><g><use xlink:href="#cMK5TYwbS" opacity="1" fill="#ffffff" fill-opacity="1"></use><g><use xlink:href="#cMK5TYwbS" opacity="1" fill-opacity="0" stroke="#000000" stroke-width="1" stroke-opacity="0"></use></g></g><g><use xlink:href="#c66hkXOM0" opacity="1" fill="#ffffff" fill-opacity="1"></use><g><use xlink:href="#c66hkXOM0" opacity="1" fill-opacity="0" stroke="#000000" stroke-width="1" stroke-opacity="0"></use></g></g><g><use xlink:href="#djqfPqSCM" opacity="1" fill="#ffffff" fill-opacity="1"></use><g><use xlink:href="#djqfPqSCM" opacity="1" fill-opacity="0" stroke="#000000" stroke-width="1" stroke-opacity="0"></use></g></g></g></g></svg>