<?xml version="1.0" encoding="UTF-8" standalone="no"?>
<!DOCTYPE svg PUBLIC "-//W3C//DTD SVG 1.1//EN" "http://www.w3.org/Graphics/SVG/1.1/DTD/svg11.dtd">
<svg version="1.1" xmlns="http://www.w3.org/2000/svg" xmlns:xlink="http://www.w3.org/1999/xlink" preserveAspectRatio="xMidYMid meet" viewBox="0 0 640 640" width="640" height="640"><defs><path d="M0 150C0 232.84 67.16 300 150 300C232.84 300 300 232.84 300 150C300 67.15 232.84 0 150 0C67.16 0 0 67.15 0 150Z" id="c891oOk4Nl"></path><path d="M120.28 201.23C120.28 217.65 133.59 230.95 150 230.95C166.41 230.95 179.72 217.65 179.72 201.23C179.72 184.82 166.41 171.52 150 171.52C133.59 171.52 120.28 184.82 120.28 201.23Z" id="aBVy5nv5m"></path><path d="M120.28 201.23C120.28 217.65 133.59 230.95 150 230.95C166.41 230.95 179.72 217.65 179.72 201.23C179.72 184.82 166.41 171.52 150 171.52C133.59 171.52 120.28 184.82 120.28 201.23Z" id="j28iWwgKiQ"></path><path d="M195.93 174.82C195.93 174.82 195.93 174.83 195.93 174.83C196.89 173.71 204.62 164.85 205.58 163.73C205.58 163.73 205.58 163.73 205.58 163.73C190.73 146.68 171 137.29 150 137.29C129 137.29 109.27 146.68 94.42 163.73C94.42 163.73 94.42 163.73 94.42 163.73C95.38 164.85 103.11 173.72 104.07 174.83C104.07 174.83 104.07 174.82 104.08 174.82C116.34 160.73 132.66 152.97 150 152.97C167.35 152.97 183.66 160.73 195.93 174.82Z" id="fBh3uGhjw"></path><path d="M195.93 174.82C195.93 174.82 195.93 174.83 195.93 174.83C196.89 173.71 204.62 164.85 205.58 163.73C205.58 163.73 205.58 163.73 205.58 163.73C190.73 146.68 171 137.29 150 137.29C129 137.29 109.27 146.68 94.42 163.73C94.42 163.73 94.42 163.73 94.42 163.73C95.38 164.85 103.11 173.72 104.07 174.83C104.07 174.83 104.07 174.82 104.08 174.82C116.34 160.73 132.66 152.97 150 152.97C167.35 152.97 183.66 160.73 195.93 174.82Z" id="i1TjR4F6S"></path><path d="M216.22 150.2C216.22 150.21 216.22 150.21 216.23 150.21C217.19 149.1 224.92 140.23 225.88 139.12C225.88 139.12 225.88 139.12 225.88 139.11C205.61 115.84 178.66 103.02 150 103.02C121.34 103.02 94.39 115.84 74.12 139.11C74.12 139.12 74.12 139.12 74.12 139.12C75.08 140.23 82.81 149.1 83.78 150.21C83.78 150.21 83.78 150.21 83.78 150.2C101.47 129.89 124.99 118.7 150 118.7C175.01 118.7 198.53 129.89 216.22 150.2Z" id="a4IzSqBJh6"></path><path d="M216.22 150.2C216.22 150.21 216.22 150.21 216.23 150.21C217.19 149.1 224.92 140.23 225.88 139.12C225.88 139.12 225.88 139.12 225.88 139.11C205.61 115.84 178.66 103.02 150 103.02C121.34 103.02 94.39 115.84 74.12 139.11C74.12 139.12 74.12 139.12 74.12 139.12C75.08 140.23 82.81 149.1 83.78 150.21C83.78 150.21 83.78 150.21 83.78 150.2C101.47 129.89 124.99 118.7 150 118.7C175.01 118.7 198.53 129.89 216.22 150.2Z" id="b1onTAyW9H"></path><path d="M236.33 125.8C236.33 125.8 236.33 125.81 236.33 125.81C237.3 124.7 245.02 115.83 245.99 114.72C245.99 114.72 245.99 114.71 245.99 114.71C220.35 85.27 186.26 69.06 150 69.06C113.74 69.06 79.65 85.27 54.02 114.71C54.02 114.71 54.01 114.72 54.01 114.72C54.98 115.83 62.7 124.7 63.67 125.81C63.67 125.81 63.68 125.8 63.68 125.8C86.73 99.32 117.39 84.74 150 84.74C182.61 84.74 213.27 99.32 236.33 125.8Z" id="fucrLGPG"></path><path d="M236.33 125.8C236.33 125.8 236.33 125.81 236.33 125.81C237.3 124.7 245.02 115.83 245.99 114.72C245.99 114.72 245.99 114.71 245.99 114.71C220.35 85.27 186.26 69.06 150 69.06C113.74 69.06 79.65 85.27 54.02 114.71C54.02 114.71 54.01 114.72 54.01 114.72C54.98 115.83 62.7 124.7 63.67 125.81C63.67 125.81 63.68 125.8 63.68 125.8C86.73 99.32 117.39 84.74 150 84.74C182.61 84.74 213.27 99.32 236.33 125.8Z" id="cKgllB07c"></path><path d="M150 227.57C150 227.57 150 227.57 150 227.57C150 227.57 150 227.57 150 227.57C150 227.57 150 227.57 150 227.57C150 227.57 150 227.57 150 227.57C150 227.57 150 227.57 150 227.57C150 227.57 150 227.57 150 227.57C150 227.57 150 227.57 150 227.57C150 227.57 150 227.57 150 227.57Z" id="e21QB52eGM"></path><path d="M150 227.57C150 227.57 150 227.57 150 227.57C150 227.57 150 227.57 150 227.57C150 227.57 150 227.57 150 227.57C150 227.57 150 227.57 150 227.57C150 227.57 150 227.57 150 227.57C150 227.57 150 227.57 150 227.57C150 227.57 150 227.57 150 227.57C150 227.57 150 227.57 150 227.57Z" id="dtZoc3MT8"></path></defs><g><g><g><use xlink:href="#c891oOk4Nl" opacity="1" fill="#e6003a" fill-opacity="1"></use><g><use xlink:href="#c891oOk4Nl" opacity="1" fill-opacity="0" stroke="#000000" stroke-width="1" stroke-opacity="0"></use></g></g><g><use xlink:href="#aBVy5nv5m" opacity="1" fill="#ffffff" fill-opacity="1"></use><g><use xlink:href="#aBVy5nv5m" opacity="1" fill-opacity="0" stroke="#000000" stroke-width="1" stroke-opacity="0"></use></g></g><g><use xlink:href="#j28iWwgKiQ" opacity="1" fill="#000000" fill-opacity="0"></use><g><use xlink:href="#j28iWwgKiQ" opacity="1" fill-opacity="0" stroke="#000000" stroke-width="1" stroke-opacity="0"></use></g></g><g><use xlink:href="#fBh3uGhjw" opacity="1" fill="#ffffff" fill-opacity="1"></use><g><use xlink:href="#fBh3uGhjw" opacity="1" fill-opacity="0" stroke="#000000" stroke-width="1" stroke-opacity="0"></use></g></g><g><use xlink:href="#i1TjR4F6S" opacity="1" fill="#000000" fill-opacity="0"></use><g><use xlink:href="#i1TjR4F6S" opacity="1" fill-opacity="0" stroke="#000000" stroke-width="1" stroke-opacity="0"></use></g></g><g><use xlink:href="#a4IzSqBJh6" opacity="1" fill="#ffffff" fill-opacity="1"></use><g><use xlink:href="#a4IzSqBJh6" opacity="1" fill-opacity="0" stroke="#000000" stroke-width="1" stroke-opacity="0"></use></g></g><g><use xlink:href="#b1onTAyW9H" opacity="1" fill="#000000" fill-opacity="0"></use><g><use xlink:href="#b1onTAyW9H" opacity="1" fill-opacity="0" stroke="#000000" stroke-width="1" stroke-opacity="0"></use></g></g><g><use xlink:href="#fucrLGPG" opacity="1" fill="#ffffff" fill-opacity="1"></use><g><use xlink:href="#fucrLGPG" opacity="1" fill-opacity="0" stroke="#000000" stroke-width="1" stroke-opacity="0"></use></g></g><g><use xlink:href="#cKgllB07c" opacity="1" fill="#000000" fill-opacity="0"></use><g><use xlink:href="#cKgllB07c" opacity="1" fill-opacity="0" stroke="#000000" stroke-width="1" stroke-opacity="0"></use></g></g><g><use xlink:href="#e21QB52eGM" opacity="1" fill="#ffffff" fill-opacity="1"></use><g><use xlink:href="#e21QB52eGM" opacity="1" fill-opacity="0" stroke="#000000" stroke-width="1" stroke-opacity="0"></use></g></g><g><use xlink:href="#dtZoc3MT8" opacity="1" fill="#000000" fill-opacity="0"></use><g><use xlink:href="#dtZoc3MT8" opacity="1" fill-opacity="0" stroke="#000000" stroke-width="1" stroke-opacity="0"></use></g></g></g></g></svg>